<svg width="245" height="100" viewBox="0 0 245 100" fill="none" xmlns="http://www.w3.org/2000/svg">
  <rect width="245" height="100" rx="10" fill="#0D0D0D"/>
  <text x="15" y="60" font-family="Courier New, monospace" font-size="42" fill="#00FFB2">cliff</text>
 <g transform="translate(175, 12)">
  <!-- Robot Head -->
  <rect x="10" y="10" width="40" height="40" rx="8" ry="8" fill="#00FFB2" stroke="#000" stroke-width="2"/>
  
  <!-- Eyes -->
  <circle cx="20" cy="25" r="4" fill="white"/>
  <circle cx="40" cy="25" r="4" fill="white"/>
  <circle cx="20" cy="25" r="2" fill="black"/>
  <circle cx="40" cy="25" r="2" fill="black"/>
  
  <!-- Smile -->
  <path d="M20 35 Q30 45, 40 35" stroke="black" stroke-width="2" fill="transparent"/>
  
  <!-- Antennas -->
  <line x1="15" y1="5" x2="15" y2="10" stroke="#00FFB2" stroke-width="2"/>
  <line x1="45" y1="5" x2="45" y2="10" stroke="#00FFB2" stroke-width="2"/>
  
  <!-- Robot Body -->
  <rect x="15" y="40" width="30" height="15" fill="#00FFB2" stroke="#000" stroke-width="2"/>
  
  <!-- Arms -->
  <rect x="5" y="40" width="10" height="5" fill="#00FFB2" stroke="#000" stroke-width="2"/>
  <rect x="45" y="40" width="10" height="5" fill="#00FFB2" stroke="#000" stroke-width="2"/>
  
  <!-- Legs -->
  <rect x="18" y="55" width="8" height="5" fill="#00FFB2" stroke="#000" stroke-width="2"/>
  <rect x="34" y="55" width="8" height="5" fill="#00FFB2" stroke="#000" stroke-width="2"/>
  </g>

  <text x="15" y="80" font-family="Courier New, monospace" font-size="12" fill="#888888">
    CLI Friend &amp; Facilitator
  </text>
</svg>